<svg xmlns="http://www.w3.org/2000/svg" viewBox="0 0 1200 675" role="img" aria-label="Fiber vs Broadband"><defs><linearGradient id="bg" x1="0" y1="0" x2="1" y2="1"><stop stop-color="#031225"/><stop offset="0.48" stop-color="#061b36"/><stop offset="1" stop-color="#031225"/></linearGradient><linearGradient id="g" x1="0" y1="0" x2="1" y2="1"><stop stop-color="#1E88FF"/><stop offset=".5" stop-color="#21D4FD"/><stop offset="1" stop-color="#21D07A"/></linearGradient><filter id="glow"><feGaussianBlur stdDeviation="10" result="b"/><feMerge><feMergeNode in="b"/><feMergeNode in="SourceGraphic"/></feMerge></filter></defs><rect width="1200" height="675" fill="url(#bg)"/><circle cx="120" cy="80" r="260" fill="#1E88FF" opacity=".14"/><circle cx="1050" cy="130" r="280" fill="#21D07A" opacity=".12"/><g opacity=".18" stroke="#21D4FD"><path d="M0 90 H1200"/><path d="M0 180 H1200"/><path d="M0 270 H1200"/><path d="M0 360 H1200"/><path d="M0 450 H1200"/><path d="M0 540 H1200"/><path d="M0 630 H1200"/><path d="M120 0 V675"/><path d="M240 0 V675"/><path d="M360 0 V675"/><path d="M480 0 V675"/><path d="M600 0 V675"/><path d="M720 0 V675"/><path d="M840 0 V675"/><path d="M960 0 V675"/><path d="M1080 0 V675"/></g><g filter="url(#glow)"><path d="M80 420 C300 210 500 520 720 290 S980 130 1130 360" fill="none" stroke="#21D4FD" stroke-width="18" stroke-linecap="round"/><path d="M80 470 C320 270 500 560 740 350 S990 210 1130 430" fill="none" stroke="#21D07A" stroke-width="18" stroke-linecap="round"/><circle cx="730" cy="292" r="38" fill="#f8fafc" opacity=".9"/></g><text x="72" y="590" fill="#f8fafc" font-family="Arial, sans-serif" font-size="42" font-weight="800">Fiber vs Broadband</text></svg>