<svg xmlns="http://www.w3.org/2000/svg" viewBox="0 0 1200 675" role="img" aria-label="Internet Speed Guide"><defs><linearGradient id="bg" x1="0" y1="0" x2="1" y2="1"><stop stop-color="#031225"/><stop offset="0.48" stop-color="#061b36"/><stop offset="1" stop-color="#031225"/></linearGradient><linearGradient id="g" x1="0" y1="0" x2="1" y2="1"><stop stop-color="#1E88FF"/><stop offset=".5" stop-color="#21D4FD"/><stop offset="1" stop-color="#21D07A"/></linearGradient><filter id="glow"><feGaussianBlur stdDeviation="10" result="b"/><feMerge><feMergeNode in="b"/><feMergeNode in="SourceGraphic"/></feMerge></filter></defs><rect width="1200" height="675" fill="url(#bg)"/><circle cx="120" cy="80" r="260" fill="#1E88FF" opacity=".14"/><circle cx="1050" cy="130" r="280" fill="#21D07A" opacity=".12"/><g opacity=".18" stroke="#21D4FD"><path d="M0 90 H1200"/><path d="M0 180 H1200"/><path d="M0 270 H1200"/><path d="M0 360 H1200"/><path d="M0 450 H1200"/><path d="M0 540 H1200"/><path d="M0 630 H1200"/><path d="M120 0 V675"/><path d="M240 0 V675"/><path d="M360 0 V675"/><path d="M480 0 V675"/><path d="M600 0 V675"/><path d="M720 0 V675"/><path d="M840 0 V675"/><path d="M960 0 V675"/><path d="M1080 0 V675"/></g><g filter="url(#glow)"><path d="M150 340 C320 150 560 140 720 330 S1010 530 1080 260" fill="none" stroke="url(#g)" stroke-width="28" stroke-linecap="round"/><circle cx="720" cy="330" r="64" fill="#071A32" stroke="#21D4FD" stroke-width="12"/><path d="M720 330 L880 240" stroke="#21D07A" stroke-width="20" stroke-linecap="round"/></g><text x="72" y="590" fill="#f8fafc" font-family="Arial, sans-serif" font-size="42" font-weight="800">Internet Speed Guide</text></svg>